<?xml version="1.0" encoding="UTF-8" standalone="no"?>
<!DOCTYPE svg PUBLIC "-//W3C//DTD SVG 1.1//EN" "http://www.w3.org/Graphics/SVG/1.1/DTD/svg11.dtd">
<svg xmlns="http://www.w3.org/2000/svg" version="1.1" viewBox="0.00 0.00 642.00 169.00">
<path fill="#3497da" d="
  M 168.19 91.65
  L 167.74 90.79
  Q 167.58 90.50 167.25 90.50
  L 125.78 89.95
  A 0.65 0.64 16.2 0 1 125.24 88.97
  L 176.92 4.21
  A 3.73 3.72 15.9 0 1 180.14 2.42
  L 215.76 2.68
  Q 217.29 2.69 216.49 4.00
  L 182.94 58.97
  A 1.49 1.49 0.0 0 0 183.30 60.93
  Q 184.21 61.62 186.00 61.61
  Q 205.62 61.47 225.02 61.74
  A 0.54 0.54 0.0 0 1 225.39 62.67
  Q 184.20 102.61 143.04 142.54
  Q 137.07 148.33 131.38 154.40
  Q 129.93 155.95 128.33 157.06
  A 0.23 0.23 0.0 0 1 127.99 156.76
  C 131.45 150.30 136.52 144.00 139.79 138.60
  Q 153.96 115.20 168.18 91.97
  A 0.32 0.31 -44.1 0 0 168.19 91.65
  Z"
/>
<path fill="#d93333" d="
  M 354.08 118.26
  C 352.50 129.37 342.92 135.10 331.98 133.83
  Q 323.30 132.82 321.00 125.79
  Q 320.00 122.73 320.82 116.65
  Q 325.65 81.09 330.67 45.55
  Q 331.71 38.15 333.63 34.78
  Q 339.20 24.95 352.75 26.19
  C 365.49 27.36 365.74 35.59 364.21 46.43
  Q 359.17 82.35 354.08 118.26
  Z
  M 351.3793 40.8108
  A 3.05 3.05 0.0 0 0 348.7955 37.3570
  L 348.7163 37.3456
  A 3.05 3.05 0.0 0 0 345.2624 39.9294
  L 333.8207 119.3292
  A 3.05 3.05 0.0 0 0 336.4045 122.7830
  L 336.4837 122.7944
  A 3.05 3.05 0.0 0 0 339.9376 120.2106
  L 351.3793 40.8108
  Z"
/>
<path fill="#d93333" d="
  M 626.54 118.76
  C 625.43 126.61 618.91 132.44 611.34 133.81
  C 605.50 134.87 596.98 133.57 594.10 127.64
  C 591.75 122.82 593.47 115.59 594.28 109.76
  Q 598.42 79.86 602.58 49.95
  Q 604.20 38.27 606.37 34.42
  Q 611.86 24.67 625.76 26.19
  C 638.78 27.61 638.10 36.76 636.58 47.55
  Q 631.56 83.15 626.54 118.76
  Z
  M 623.8992 40.8615
  A 3.06 3.06 0.0 0 0 621.3069 37.3963
  L 621.2277 37.3849
  A 3.06 3.06 0.0 0 0 617.7626 39.9772
  L 606.3408 119.2385
  A 3.06 3.06 0.0 0 0 608.9331 122.7037
  L 609.0123 122.7151
  A 3.06 3.06 0.0 0 0 612.4774 120.1228
  L 623.8992 40.8615
  Z"
/>
<path fill="#d93333" d="
  M 93.76 124.05
  L 92.40 132.51
  A 0.61 0.61 0.0 0 1 91.80 133.02
  L 66.87 133.14
  A 0.61 0.61 0.0 0 1 66.26 132.44
  L 81.16 27.54
  A 0.61 0.61 0.0 0 1 81.76 27.02
  L 94.34 26.97
  A 0.61 0.61 0.0 0 1 94.95 27.67
  L 81.37 122.80
  A 0.61 0.61 0.0 0 0 81.98 123.50
  L 93.14 123.34
  A 0.61 0.61 0.0 0 1 93.76 124.05
  Z"
/>
<path fill="#d93333" d="
  M 476.79 105.88
  L 470.00 105.95
  A 0.68 0.68 0.0 0 0 469.35 106.49
  L 463.79 132.44
  A 0.68 0.68 0.0 0 1 463.14 132.98
  L 453.25 133.11
  A 0.68 0.68 0.0 0 1 452.58 132.28
  L 476.06 27.56
  A 0.68 0.68 0.0 0 1 476.72 27.03
  L 493.61 26.99
  A 0.68 0.68 0.0 0 1 494.29 27.71
  L 488.77 132.39
  A 0.68 0.68 0.0 0 1 488.10 133.03
  L 476.35 133.09
  A 0.68 0.68 0.0 0 1 475.67 132.36
  L 477.48 106.61
  A 0.68 0.68 0.0 0 0 476.79 105.88
  Z
  M 473.39 96.07
  L 476.27 96.51
  A 1.20 1.20 0.0 0 0 477.64 95.50
  L 477.67 95.31
  A 27.83 2.58 -81.5 0 0 479.23 67.40
  L 479.07 67.38
  A 27.83 2.58 -81.5 0 0 472.41 94.52
  L 472.38 94.71
  A 1.20 1.20 0.0 0 0 473.39 96.07
  Z"
/>
<path fill="#d93333" d="
  M 31.18 38.92
  L 26.15 74.46
  A 0.85 0.85 0.0 0 0 27.01 75.43
  L 35.37 75.29
  A 0.85 0.85 0.0 0 1 36.22 76.26
  L 35.08 84.43
  A 0.85 0.85 0.0 0 1 34.21 85.16
  L 25.46 84.93
  A 0.85 0.85 0.0 0 0 24.59 85.66
  L 19.53 121.04
  A 0.85 0.85 0.0 0 0 20.40 122.01
  L 32.39 121.68
  A 0.85 0.85 0.0 0 1 33.25 122.64
  L 31.93 132.27
  A 0.85 0.85 0.0 0 1 31.09 133.00
  L 5.11 133.11
  A 0.85 0.85 0.0 0 1 4.27 132.14
  L 19.04 27.74
  A 0.85 0.85 0.0 0 1 19.88 27.01
  L 44.72 27.03
  A 0.85 0.85 0.0 0 1 45.56 27.99
  L 44.23 37.78
  A 0.85 0.85 0.0 0 1 43.37 38.52
  L 32.05 38.19
  A 0.85 0.85 0.0 0 0 31.18 38.92
  Z"
/>
<path fill="#d93333" d="
  M 285.73 118.04
  C 284.79 124.48 280.84 129.37 275.15 131.67
  Q 271.91 132.98 263.66 133.01
  Q 257.23 133.03 250.93 133.28
  A 0.69 0.68 -87.5 0 1 250.22 132.50
  L 265.10 27.75
  Q 265.17 27.21 265.71 27.19
  Q 279.79 26.60 285.22 27.18
  Q 294.00 28.12 296.28 35.23
  Q 297.26 38.29 296.41 44.30
  Q 291.16 81.19 285.73 118.04
  Z
  M 283.2262 41.1320
  A 2.53 2.53 0.0 0 0 281.0829 38.2670
  L 279.9149 38.0987
  A 2.53 2.53 0.0 0 0 277.0500 40.2420
  L 265.6938 119.0480
  A 2.53 2.53 0.0 0 0 267.8371 121.9130
  L 269.0051 122.0813
  A 2.53 2.53 0.0 0 0 271.8700 119.9380
  L 283.2262 41.1320
  Z"
/>
<path fill="#d93333" d="
  M 423.14 80.47
  C 426.60 82.53 427.39 85.15 426.77 89.24
  C 424.31 105.50 421.93 118.11 422.14 132.56
  A 0.56 0.56 0.0 0 1 421.58 133.13
  L 409.11 133.02
  A 0.76 0.75 86.4 0 1 408.38 132.37
  Q 407.93 128.94 408.52 123.50
  Q 410.29 107.02 413.16 88.82
  Q 413.63 85.82 410.69 85.04
  L 409.77 84.80
  A 2.09 2.08 11.5 0 0 407.16 86.52
  L 400.61 132.33
  A 0.82 0.82 0.0 0 1 399.80 133.03
  L 387.86 133.09
  A 0.87 0.87 0.0 0 1 387.00 132.10
  L 401.83 27.54
  Q 401.89 27.11 402.32 27.10
  Q 415.68 26.85 420.47 27.08
  Q 434.98 27.78 433.47 41.99
  Q 432.78 48.43 429.38 69.99
  Q 428.33 76.68 423.14 79.76
  Q 422.54 80.11 423.14 80.47
  Z
  M 419.8260 41.2276
  A 2.60 2.60 0.0 0 0 417.6235 38.2833
  L 416.6337 38.1407
  A 2.60 2.60 0.0 0 0 413.6894 40.3433
  L 409.0740 72.3724
  A 2.60 2.60 0.0 0 0 411.2765 75.3167
  L 412.2663 75.4593
  A 2.60 2.60 0.0 0 0 415.2106 73.2567
  L 419.8260 41.2276
  Z"
/>
<path fill="#d93333" d="
  M 558.49 118.03
  C 557.10 127.75 548.29 133.43 538.98 133.13
  Q 531.14 132.88 523.45 133.24
  A 0.66 0.66 0.0 0 1 522.76 132.49
  L 537.66 27.53
  Q 537.72 27.09 538.16 27.09
  Q 553.16 26.81 557.98 27.18
  Q 566.52 27.84 568.72 34.68
  Q 569.79 37.98 568.72 45.61
  Q 563.67 81.84 558.49 118.03
  Z
  M 555.7121 41.2581
  A 2.59 2.59 0.0 0 0 553.5180 38.3252
  L 552.5084 38.1797
  A 2.59 2.59 0.0 0 0 549.5755 40.3738
  L 538.2479 118.9819
  A 2.59 2.59 0.0 0 0 540.4420 121.9148
  L 541.4516 122.0603
  A 2.59 2.59 0.0 0 0 544.3845 119.8662
  L 555.7121 41.2581
  Z"
/>
</svg>
